USFL
nRows=409
nColumns=2
inDegrees=yes
endheader
time	tib_ant_r	
2.62786	 40.183669	
2.66112	 40.207684	
2.69438	 40.216662	
2.72765	 40.189733	
2.76091	 40.174741	
2.79418	 40.172062	
2.82744	 40.142211	
2.8607	 40.122502	
2.89397	 40.133355	
2.92723	 40.114917	
2.9605	 40.110953	
2.99376	 40.134966	
3.02702	 40.117216	
3.06029	 40.111203	
3.09355	 40.090702	
3.12682	 40.066350	
3.16008	 40.092544	
3.19334	 40.089290	
3.22661	 40.101830	
3.25987	 40.098758	
3.29314	 40.065381	
3.3264	 40.062291	
3.35966	 40.084027	
3.39293	 40.065235	
3.42619	 40.067701	
3.45946	 40.057102	
3.49272	 40.034243	
3.52598	 40.039914	
3.55925	 40.054897	
3.59251	 40.092355	
3.62578	 40.131632	
3.65904	 40.111206	
3.6923	 40.068713	
3.72557	 40.043282	
3.75883	 39.988310	
3.7921	 39.996758	
3.82536	 39.965589	
3.85862	 39.948666	
3.89189	 39.946329	
3.92515	 39.947141	
3.95842	 39.967565	
3.99168	 39.981653	
4.02494	 39.976493	
4.05821	 39.976664	
4.09147	 39.985151	
4.12474	 39.973424	
4.158	 39.998953	
4.19126	 39.995708	
4.22453	 40.003097	
4.25779	 39.987238	
4.29106	 39.983838	
4.32432	 39.924394	
4.35758	 39.907584	
4.39085	 39.935096	
4.42411	 39.951466	
4.45738	 39.952892	
4.49064	 39.966790	
4.5239	 39.961761	
4.55717	 39.970193	
4.59043	 40.028394	
4.6237	 40.031315	
4.65696	 40.032196	
4.69022	 40.001919	
4.72349	 40.000387	
4.75675	 39.994282	
4.79002	 39.989619	
4.82328	 39.978088	
4.85654	 39.923699	
4.88981	 39.933651	
4.92307	 39.929557	
4.95634	 39.919478	
4.9896	 39.906658	
5.02286	 39.926649	
5.05613	 39.945833	
5.08939	 39.956460	
5.12266	 39.951458	
5.15592	 39.951436	
5.18918	 39.952557	
5.22245	 39.948711	
5.25571	 39.953767	
5.28898	 39.937781	
5.32224	 39.922807	
5.3555	 39.923579	
5.38877	 39.928195	
5.42203	 39.933319	
5.4553	 39.938435	
5.48856	 39.932025	
5.52182	 39.943399	
5.55509	 39.940622	
5.58835	 39.940414	
5.62162	 39.926014	
5.65488	 39.913810	
5.68814	 39.944170	
5.72141	 39.946951	
5.75467	 39.941299	
5.78794	 39.958577	
5.8212	 39.975810	
5.85446	 39.970540	
5.88773	 39.971157	
5.92099	 39.971221	
5.95426	 39.975976	
5.98752	 39.958885	
6.02078	 39.959059	
6.05405	 39.957372	
6.08731	 39.955903	
6.12058	 39.955632	
6.15384	 39.950330	
6.1871	 39.945922	
6.22037	 39.944600	
6.25363	 39.951153	
6.2869	 39.955666	
6.32016	 39.955172	
6.35342	 39.945376	
6.38669	 39.957702	
6.41995	 39.963989	
6.45322	 39.974371	
6.48648	 39.967891	
6.51974	 39.981713	
6.55301	 39.989168	
6.58627	 39.997371	
6.61954	 39.989846	
6.6528	 39.992004	
6.68606	 39.989174	
6.71933	 39.986886	
6.75259	 39.978594	
6.78586	 39.973134	
6.81912	 39.978485	
6.85238	 39.976930	
6.88565	 39.969166	
6.91891	 39.974502	
6.95218	 39.972861	
6.98544	 39.977550	
7.0187	 40.002425	
7.05197	 39.977226	
7.08523	 39.953801	
7.1185	 39.971568	
7.15176	 39.972650	
7.18502	 39.983137	
7.21829	 39.979134	
7.25155	 39.971523	
7.28482	 39.971435	
7.31808	 39.972842	
7.35134	 39.970223	
7.38461	 39.978414	
7.41787	 39.972794	
7.45114	 39.961474	
7.4844	 39.967704	
7.51766	 39.972749	
7.55093	 39.981206	
7.58419	 39.981706	
7.61746	 39.982956	
7.65072	 39.975730	
7.68398	 39.973361	
7.71725	 39.959855	
7.75051	 39.947500	
7.78378	 39.959680	
7.81704	 39.978068	
7.8503	 39.958326	
7.88357	 39.952583	
7.91683	 39.991178	
7.9501	 39.993314	
7.98336	 40.011534	
8.01662	 40.027130	
8.04989	 40.016711	
8.08315	 40.002209	
8.11642	 39.993695	
8.14968	 39.992092	
8.18294	 40.013117	
8.21621	 40.031827	
8.24947	 40.020918	
8.28274	 40.013455	
8.316	 40.006307	
8.34926	 40.015453	
8.38253	 40.024622	
8.41579	 40.037946	
8.44906	 40.048176	
8.48232	 40.074446	
8.51558	 40.060921	
8.54885	 40.058371	
8.58211	 40.082435	
8.61538	 40.097027	
8.64864	 40.087552	
8.6819	 40.065674	
8.71517	 40.055550	
8.74843	 40.039689	
8.7817	 40.014438	
8.81496	 39.991228	
8.84822	 39.981717	
8.88149	 39.968909	
8.91475	 39.968705	
8.94802	 39.969059	
8.98128	 39.967456	
9.01454	 40.016134	
9.04781	 40.017369	
9.08107	 40.069868	
9.11434	 40.099220	
9.1476	 40.084180	
9.18086	 40.062284	
9.21413	 40.071975	
9.24739	 40.078871	
9.28066	 40.080388	
9.31392	 40.062314	
9.34718	 40.044017	
9.38045	 40.046210	
9.41371	 40.057352	
9.44698	 40.059651	
9.48024	 40.065711	
9.5135	 40.043768	
9.54677	 40.053687	
9.58003	 40.064155	
9.6133	 40.066669	
9.64656	 40.066665	
9.67982	 40.039355	
9.71309	 40.034314	
9.74635	 40.062929	
9.77962	 40.021702	
9.81288	 39.997700	
9.84614	 39.991611	
9.87941	 39.987152	
9.91267	 39.966001	
9.94594	 40.004108	
9.9792	 39.985956	
10.0125	 39.989253	
10.0457	 39.975256	
10.079	 39.928342	
10.1123	 39.936070	
10.1455	 39.887802	
10.1788	 39.851825	
10.212	 39.819939	
10.2453	 39.781640	
10.2786	 39.741616	
10.3118	 38.514155	
10.3451	 38.537741	
10.3784	 38.549991	
10.4116	 38.564907	
10.4449	 38.615284	
10.4782	 38.602377	
10.5114	 38.572496	
10.5447	 38.538728	
10.578	 38.525531	
10.6112	 38.433616	
10.6445	 38.376450	
10.6777	 38.396355	
10.711	 38.296598	
10.7443	 38.230871	
10.7775	 38.234936	
10.8108	 38.124400	
10.8441	 38.125910	
10.8773	 38.105626	
10.9106	 38.079062	
10.9439	 38.073610	
10.9771	 38.070824	
11.0104	 38.082772	
11.0436	 38.103117	
11.0769	 38.097142	
11.1102	 38.132848	
11.1434	 38.132053	
11.1767	 38.097951	
11.21	 38.103999	
11.2432	 38.108092	
11.2765	 38.113344	
11.3098	 38.122253	
11.343	 38.127920	
11.3763	 38.128314	
11.4096	 38.143301	
11.4428	 38.137528	
11.4761	 38.150692	
11.5093	 38.144378	
11.5426	 38.128869	
11.5759	 38.126518	
11.6091	 38.115976	
11.6424	 38.103286	
11.6757	 38.106581	
11.7089	 38.113154	
11.7422	 38.113171	
11.7755	 38.122547	
11.8087	 38.127039	
11.842	 38.142599	
11.8752	 38.148739	
11.9085	 38.139053	
11.9418	 38.135779	
11.975	 38.121442	
12.0083	 38.101652	
12.0416	 38.105859	
12.0748	 38.101771	
12.1081	 38.104641	
12.1414	 38.099260	
12.1746	 38.104865	
12.2079	 38.103240	
12.2412	 38.104075	
12.2744	 38.101520	
12.3077	 38.104160	
12.3409	 38.099979	
12.3742	 38.095323	
12.4075	 38.093309	
12.4407	 38.092729	
12.474	 38.109158	
12.5073	 38.103433	
12.5405	 38.112547	
12.5738	 38.128382	
12.6071	 38.140625	
12.6403	 38.133791	
12.6736	 38.128881	
12.7068	 38.133968	
12.7401	 38.131376	
12.7734	 38.137526	
12.8066	 38.132476	
12.8399	 38.134389	
12.8732	 38.132380	
12.9064	 38.147264	
12.9397	 38.157818	
12.973	 38.146339	
13.0062	 38.143930	
13.0395	 38.123422	
13.0728	 38.128274	
13.106	 38.110513	
13.1393	 38.122850	
13.1725	 38.098357	
13.2058	 38.103016	
13.2391	 38.115109	
13.2723	 38.131896	
13.3056	 38.180777	
13.3389	 38.195942	
13.3721	 38.200718	
13.4054	 38.234263	
13.4387	 38.232564	
13.4719	 38.240153	
13.5052	 38.245419	
13.5384	 38.242041	
13.5717	 38.207845	
13.605	 38.194338	
13.6382	 38.203510	
13.6715	 38.195833	
13.7048	 38.194987	
13.738	 38.230439	
13.7713	 38.283579	
13.8046	 38.277620	
13.8378	 38.264795	
13.8711	 38.258407	
13.9044	 38.254694	
13.9376	 38.251565	
13.9709	 38.253197	
14.0041	 38.247755	
14.0374	 38.241434	
14.0707	 38.242890	
14.1039	 38.247391	
14.1372	 38.258888	
14.1705	 38.263631	
14.2037	 38.247171	
14.237	 38.241333	
14.2703	 38.234417	
14.3035	 38.228497	
14.3368	 38.230268	
14.37	 38.235439	
14.4033	 38.234085	
14.4366	 38.237109	
14.4698	 38.243626	
14.5031	 38.285244	
14.5364	 38.271542	
14.5696	 38.222271	
14.6029	 38.192721	
14.6362	 38.173814	
14.6694	 38.131976	
14.7027	 38.128555	
14.736	 38.144629	
14.7692	 38.136547	
14.8025	 38.144010	
14.8357	 38.146296	
14.869	 38.161729	
14.9023	 38.150645	
14.9355	 38.144904	
14.9688	 38.153319	
15.0021	 38.148145	
15.0353	 38.143343	
15.0686	 38.149647	
15.1019	 38.156148	
15.1351	 38.169701	
15.1684	 38.180367	
15.2016	 38.194668	
15.2349	 38.174043	
15.2682	 38.181571	
15.3014	 38.179629	
15.3347	 38.171339	
15.368	 38.168887	
15.4012	 38.163059	
15.4345	 38.155884	
15.4678	 38.157329	
15.501	 38.179879	
15.5343	 38.172263	
15.5676	 38.168944	
15.6008	 38.179346	
15.6341	 38.180561	
15.6673	 38.186811	
15.7006	 38.191713	
15.7339	 38.203803	
15.7671	 38.215139	
15.8004	 38.234593	
15.8337	 38.240074	
15.8669	 38.246383	
15.9002	 38.250156	
15.9335	 38.255557	
15.9667	 38.240551	
16	 38.201730	
16.0332	 38.129498	
16.0665	 38.054443	
16.0998	 37.943453	
16.133	 37.832132	
16.1663	 37.731167	
16.1996	 37.813190	
